<svg width="79" height="14" viewBox="0 0 79 14" fill="none" xmlns="http://www.w3.org/2000/svg">
<path d="M0.953857 6.73703L13.0623 0.684692L7.29042 13.5208L7.34348 7.07432L0.953857 6.73703Z" fill="white"/>
<path d="M66.116 0.341715L59.8628 7.65606C59.8415 7.6818 59.8278 7.71303 59.8234 7.74619C59.8189 7.77934 59.8239 7.81307 59.8377 7.84352C59.8516 7.87397 59.8737 7.89991 59.9016 7.91836C59.9295 7.93682 59.962 7.94705 59.9954 7.94788H63.6413C63.6692 7.94729 63.6968 7.95357 63.7217 7.96617C63.7467 7.97877 63.7682 7.9973 63.7842 8.02012C63.8003 8.04295 63.8106 8.06939 63.814 8.0971C63.8175 8.12481 63.8142 8.15295 63.8042 8.17906L61.9434 13.3256C61.9296 13.3635 61.9293 13.4049 61.9426 13.443C61.9559 13.481 61.9819 13.5133 62.0163 13.5343C62.0507 13.5553 62.0913 13.5637 62.1312 13.5581C62.1712 13.5526 62.2079 13.5334 62.2352 13.5038L68.9584 6.13256C68.9807 6.10714 68.9953 6.0759 69.0005 6.04247C69.0057 6.00905 69.0014 5.97484 68.9878 5.94383C68.9743 5.91282 68.9523 5.8863 68.9242 5.86737C68.8962 5.84845 68.8633 5.83789 68.8295 5.83695H64.6607C64.6327 5.83687 64.605 5.83001 64.5801 5.81696C64.5553 5.80391 64.534 5.78504 64.518 5.76197C64.502 5.7389 64.4918 5.71231 64.4883 5.68445C64.4848 5.6566 64.488 5.6283 64.4978 5.60198L66.3927 0.516046C66.4 0.481194 66.3965 0.444926 66.3826 0.412123C66.3687 0.379319 66.3452 0.351555 66.315 0.332565C66.2849 0.313576 66.2497 0.304273 66.2141 0.305909C66.1785 0.307545 66.1443 0.320041 66.116 0.341715V0.341715Z" fill="white"/>
<path d="M53.9924 3.50621V10.2028C53.9924 10.4481 54.0898 10.6833 54.2633 10.8567C54.4367 11.0301 54.6719 11.1275 54.9171 11.1275H61.5114L62.2694 9.08482H59.9955C59.7447 9.08398 59.4994 9.01145 59.2885 8.87578C59.0776 8.74012 58.9099 8.54698 58.8051 8.31913C58.7003 8.09128 58.6629 7.83823 58.6972 7.58981C58.7315 7.34139 58.8362 7.10796 58.9988 6.91704L62.6976 2.58149H54.9361C54.8131 2.57897 54.6908 2.60103 54.5764 2.64637C54.462 2.69171 54.3578 2.75942 54.2699 2.84554C54.182 2.93166 54.1123 3.03446 54.0646 3.1479C54.0169 3.26135 53.9924 3.38316 53.9924 3.50621V3.50621Z" fill="white"/>
<path d="M60.8557 12.94L61.0339 12.4435H54.36C53.8701 12.4425 53.4007 12.2472 53.0547 11.9005C52.7087 11.5538 52.5143 11.0839 52.5143 10.5941V3.25699C52.5154 2.76781 52.7101 2.29894 53.056 1.95303C53.4019 1.60713 53.8708 1.41235 54.36 1.41135H63.7019L64.5129 0.463898H54.36C53.6195 0.4649 52.9097 0.759494 52.3861 1.28308C51.8625 1.80667 51.5679 2.51653 51.5669 3.25699V10.5941C51.5669 11.3352 51.8611 12.046 52.3848 12.5704C52.9085 13.0948 53.6189 13.39 54.36 13.391H60.8027C60.7942 13.2387 60.8122 13.0861 60.8557 12.94V12.94Z" fill="white"/>
<path d="M74.0518 0.462982H67.1733C67.1763 0.571527 67.1583 0.67963 67.1203 0.781327L66.8853 1.41044H74.0518C74.541 1.41144 75.0099 1.60621 75.3558 1.95212C75.7017 2.29803 75.8965 2.76689 75.8975 3.25608V10.5932C75.8975 11.083 75.7032 11.5528 75.3571 11.8996C75.0111 12.2463 74.5416 12.4416 74.0518 12.4426H64.1983L63.3304 13.39H74.0329C74.7737 13.388 75.4836 13.0926 76.007 12.5684C76.5305 12.0442 76.825 11.334 76.826 10.5932V3.25608C76.825 2.51888 76.533 1.81187 76.0135 1.28882C75.494 0.76577 74.789 0.468975 74.0518 0.462982V0.462982Z" fill="white"/>
<path d="M77.838 4.15048V9.50549C78.2019 9.16091 78.4917 8.74576 78.6898 8.2854C78.8879 7.82505 78.99 7.32915 78.99 6.82799C78.99 6.32683 78.8879 5.83093 78.6898 5.37057C78.4917 4.91022 78.2019 4.49507 77.838 4.15048V4.15048Z" fill="white"/>
<path d="M20.5358 9.8371L21.832 9.11704C21.9725 9.52995 22.2405 9.88755 22.5974 10.1382C22.9544 10.3889 23.3817 10.5197 23.8178 10.5117C24.3137 10.5265 24.7973 10.3563 25.1746 10.0342C25.3608 9.87761 25.5086 9.68033 25.6066 9.45757C25.7045 9.23481 25.7498 8.99252 25.7392 8.74943C25.7392 7.61248 24.9168 6.96063 23.8443 6.96063C23.4996 6.95418 23.1579 7.02465 22.8439 7.16691C22.5298 7.30918 22.2515 7.51965 22.029 7.78302L20.7443 7.25624L21.4681 2.20062H26.8156V3.55738H22.6051L22.2261 6.3012C22.76 5.86578 23.4322 5.63589 24.121 5.65315C24.5389 5.63757 24.9556 5.7064 25.3463 5.85552C25.737 6.00463 26.0936 6.23097 26.3949 6.52101C26.6814 6.80992 26.9061 7.15413 27.0553 7.53268C27.2045 7.91123 27.2751 8.31619 27.2628 8.7229C27.2796 9.16055 27.197 9.59633 27.021 9.99742C26.8451 10.3985 26.5805 10.7545 26.2471 11.0385C25.5506 11.6176 24.6664 11.9222 23.761 11.895C23.0778 11.9211 22.403 11.738 21.8266 11.3703C21.2503 11.0025 20.8 10.4677 20.5358 9.8371V9.8371Z" fill="white"/>
<path d="M29.6352 3.62269C29.9745 3.17281 30.4154 2.80955 30.9219 2.56256C31.4284 2.31557 31.9861 2.19186 32.5495 2.20151C33.1101 2.18895 33.6655 2.31031 34.1698 2.55551C34.674 2.8007 35.1124 3.16266 35.4487 3.61132C36.2158 4.60779 36.61 5.8413 36.563 7.09795C36.6035 8.369 36.2017 9.61472 35.426 10.6225C35.0786 11.0604 34.6367 11.4142 34.1334 11.6575C33.63 11.9007 33.0782 12.027 32.5192 12.027C31.9602 12.027 31.4084 11.9007 30.9051 11.6575C30.4017 11.4142 29.9598 11.0604 29.6124 10.6225C28.8451 9.61738 28.4512 8.37674 28.4982 7.11311C28.4628 5.85326 28.8645 4.61997 29.6352 3.62269V3.62269ZM34.3232 4.61562C34.1393 4.30365 33.8773 4.04505 33.5629 3.86538C33.2485 3.68572 32.8927 3.59122 32.5306 3.59122C32.1685 3.59122 31.8126 3.68572 31.4982 3.86538C31.1838 4.04505 30.9218 4.30365 30.738 4.61562C30.2749 5.36426 30.0441 6.23336 30.0748 7.11311C30.043 8.00169 30.278 8.87945 30.7494 9.63334C30.9332 9.94531 31.1952 10.2039 31.5096 10.3836C31.824 10.5632 32.1799 10.6577 32.542 10.6577C32.9041 10.6577 33.2599 10.5632 33.5743 10.3836C33.8886 10.2039 34.1507 9.94531 34.3345 9.63334C34.8066 8.88392 35.0417 8.00958 35.0091 7.12448C35.0355 6.23854 34.7966 5.36491 34.3232 4.61562V4.61562Z" fill="white"/>
<path d="M41.3532 5.88851C41.1528 6.09007 40.9146 6.25002 40.6521 6.35917C40.3897 6.46832 40.1083 6.52451 39.824 6.52451C39.5398 6.52451 39.2584 6.46832 38.9959 6.35917C38.7335 6.25002 38.4952 6.09007 38.2948 5.88851C37.8942 5.48036 37.6697 4.93126 37.6697 4.35932C37.6697 3.78738 37.8942 3.23829 38.2948 2.83013C38.5973 2.52984 38.9815 2.32536 39.3995 2.24224C39.8175 2.15913 40.2508 2.20108 40.6451 2.36284C41.0394 2.5246 41.3772 2.79901 41.6164 3.15174C41.8556 3.50447 41.9855 3.91989 41.9899 4.34606C41.9969 4.63331 41.9439 4.91885 41.8343 5.18445C41.7247 5.45004 41.5608 5.68984 41.3532 5.88851V5.88851ZM40.1784 11.8764H38.7345L44.9763 2.29198H46.4088L40.1784 11.8764ZM38.8937 4.36122C38.8937 4.60747 38.9915 4.84364 39.1656 5.01777C39.3397 5.1919 39.5759 5.28972 39.8221 5.28972C39.9493 5.29784 40.0768 5.27981 40.1967 5.23672C40.3167 5.19364 40.4265 5.12643 40.5195 5.03924C40.6124 4.95204 40.6864 4.84673 40.7371 4.72978C40.7877 4.61284 40.8139 4.48676 40.8139 4.35932C40.8139 4.23189 40.7877 4.10581 40.7371 3.98886C40.6864 3.87192 40.6124 3.7666 40.5195 3.67941C40.4265 3.59222 40.3167 3.52501 40.1967 3.48192C40.0768 3.43884 39.9493 3.4208 39.8221 3.42892C39.5755 3.42993 39.3394 3.52859 39.1654 3.70332C38.9913 3.87805 38.8937 4.11461 38.8937 4.36122V4.36122ZM46.8523 8.25336C47.1542 8.55427 47.3601 8.93791 47.4441 9.35581C47.5281 9.77371 47.4863 10.2071 47.3241 10.6013C47.1619 10.9955 46.8865 11.3328 46.5327 11.5705C46.1789 11.8082 45.7626 11.9358 45.3363 11.9371C45.0546 11.9399 44.7752 11.886 44.5148 11.7785C44.2543 11.6711 44.0182 11.5123 43.8204 11.3117C43.6163 11.116 43.4545 10.8805 43.345 10.6197C43.2355 10.359 43.1806 10.0786 43.1837 9.79582C43.1817 9.51107 43.2363 9.22877 43.3443 8.96532C43.4524 8.70186 43.6117 8.4625 43.813 8.26115C44.0144 8.05981 44.2537 7.90048 44.5172 7.79245C44.7806 7.68441 45.0629 7.62982 45.3477 7.63183C45.6253 7.62795 45.9007 7.68111 46.1569 7.78802C46.4131 7.89493 46.6446 8.05332 46.8371 8.25336H46.8523ZM45.9958 9.1326C45.9095 9.04273 45.8059 8.97122 45.6913 8.92238C45.5767 8.87353 45.4534 8.84835 45.3288 8.84835C45.2042 8.84835 45.0809 8.87353 44.9662 8.92238C44.8516 8.97122 44.748 9.04273 44.6617 9.1326C44.49 9.30761 44.3938 9.54303 44.3938 9.78824C44.3938 10.0334 44.49 10.2689 44.6617 10.4439C44.8424 10.6136 45.0809 10.7081 45.3288 10.7081C45.5766 10.7081 45.8152 10.6136 45.9958 10.4439C46.1655 10.2669 46.259 10.0303 46.2562 9.78514C46.2533 9.53993 46.1544 9.30562 45.9806 9.1326H45.9958Z" fill="white"/>
</svg>
