<svg width="8" height="6" viewBox="0 0 8 6" fill="none" xmlns="http://www.w3.org/2000/svg">
<path d="M0.689571 1.45371C1.07041 1.45371 1.37914 1.12829 1.37914 0.726857C1.37914 0.325425 1.07041 0 0.689571 0C0.308731 0 0 0.325425 0 0.726857C0 1.12829 0.308731 1.45371 0.689571 1.45371Z" fill="White"/>
<path d="M7.99971 0.308563H2.15625V1.14513H7.99971V0.308563Z" fill="White"/>
<path d="M0.689571 3.72684C1.07041 3.72684 1.37914 3.40142 1.37914 2.99999C1.37914 2.59856 1.07041 2.27313 0.689571 2.27313C0.308731 2.27313 0 2.59856 0 2.99999C0 3.40142 0.308731 3.72684 0.689571 3.72684Z" fill="White"/>
<path d="M7.99971 2.5817H2.15625V3.41827H7.99971V2.5817Z" fill="White"/>
<path d="M0.689571 6.00001C1.07041 6.00001 1.37914 5.67458 1.37914 5.27315C1.37914 4.87172 1.07041 4.5463 0.689571 4.5463C0.308731 4.5463 0 4.87172 0 5.27315C0 5.67458 0.308731 6.00001 0.689571 6.00001Z" fill="White"/>
<path d="M7.99971 4.85315H2.15625V5.68972H7.99971V4.85315Z" fill="White"/>
</svg>
