<svg width="86" height="17" viewBox="0 0 86 17" fill="none" xmlns="http://www.w3.org/2000/svg">
<path d="M3.33755 8.21884H0.711204C0.476781 8.21884 0.286743 8.40888 0.286743 8.6433V12.5582C0.286743 12.7926 0.476781 12.9826 0.711204 12.9826H3.33755C3.57197 12.9826 3.762 12.7926 3.762 12.5582V8.6433C3.762 8.40888 3.57197 8.21884 3.33755 8.21884Z" fill="white"/>
<path d="M8.54854 5.98285H6.09652C5.81396 5.98285 5.5849 6.21191 5.5849 6.49447V12.4748C5.5849 12.7574 5.81396 12.9864 6.09652 12.9864H8.54854C8.8311 12.9864 9.06016 12.7574 9.06016 12.4748V6.49447C9.06016 6.21191 8.8311 5.98285 8.54854 5.98285Z" fill="white"/>
<path d="M13.7595 3.39059H11.4818C11.1511 3.39059 10.8831 3.65868 10.8831 3.98939V12.3838C10.8831 12.7145 11.1511 12.9826 11.4818 12.9826H13.7595C14.0902 12.9826 14.3583 12.7145 14.3583 12.3838V3.98939C14.3583 3.65868 14.0902 3.39059 13.7595 3.39059Z" fill="white"/>
<path d="M18.9554 0.684692H16.8369C16.4622 0.684692 16.1585 0.988413 16.1585 1.36307V12.3081C16.1585 12.6827 16.4622 12.9864 16.8369 12.9864H18.9554C19.3301 12.9864 19.6338 12.6827 19.6338 12.3081V1.36307C19.6338 0.988413 19.3301 0.684692 18.9554 0.684692Z" fill="white"/>
<path d="M76.0869 7.86659C77.6833 7.86349 79.2236 8.45529 80.4073 9.52653L82.3022 7.63162C80.6184 6.06199 78.4021 5.18918 76.1002 5.18918C73.7982 5.18918 71.5819 6.06199 69.8981 7.63162L71.793 9.52653C72.9697 8.46112 74.4996 7.86971 76.0869 7.86659V7.86659Z" fill="white"/>
<path d="M76.0869 2.96257C78.9907 2.95566 81.7859 4.06561 83.8939 6.06264L85.7888 4.16773C83.1822 1.68839 79.7223 0.305725 76.1248 0.305725C72.5273 0.305725 69.0674 1.68839 66.4608 4.16773L68.3557 6.06264C70.4445 4.08327 73.2093 2.97464 76.0869 2.96257Z" fill="white"/>
<path d="M79.2324 10.7128C78.3624 9.95078 77.2453 9.53073 76.0888 9.53073C74.9323 9.53073 73.8151 9.95078 72.9451 10.7128L76.0869 13.8545L79.2324 10.7128Z" fill="white"/>
<path d="M34.6 5.256C34.336 4.476 33.832 3.828 33.088 3.288C32.344 2.748 31.432 2.472 30.364 2.472C29.056 2.472 27.94 2.94 26.992 3.864C26.044 4.788 25.576 5.94 25.576 7.32C25.576 8.7 26.02 9.852 26.908 10.752C27.796 11.652 28.948 12.108 30.352 12.108C31.684 12.108 32.74 11.7 33.532 10.884C34.336 10.056 34.732 9.036 34.732 7.812V7.296H29.764V8.64H33.136C32.908 9.876 31.924 10.752 30.34 10.752C29.404 10.752 28.636 10.416 28.024 9.756C27.412 9.096 27.112 8.268 27.112 7.284C27.112 6.3 27.424 5.484 28.036 4.824C28.66 4.164 29.428 3.84 30.352 3.84C31.84 3.84 32.8 4.656 33.292 5.856L34.6 5.256ZM43.0425 5.52C43.0425 4.716 42.7665 4.02 42.2145 3.456C41.6745 2.892 40.8465 2.604 39.7545 2.604H36.4305V12H37.9065V8.52H39.5745C40.6665 8.52 41.5065 8.232 42.1185 7.668C42.7305 7.092 43.0425 6.372 43.0425 5.52ZM39.6225 3.972C40.3185 3.972 40.8105 4.128 41.0985 4.44C41.3985 4.752 41.5425 5.124 41.5425 5.556C41.5425 6.42 40.9305 7.164 39.6225 7.164H37.9065V3.972H39.6225ZM44.6219 12H46.0979V8.436H47.8859L49.9259 12H51.5939L49.3619 8.184C50.6219 7.764 51.3539 6.804 51.3539 5.496C51.3539 4.668 51.0899 3.984 50.5739 3.432C50.0579 2.88 49.2419 2.604 48.1499 2.604H44.6219V12ZM46.0979 3.972H47.9939C49.5299 3.972 49.8539 4.812 49.8539 5.532C49.8539 6.396 49.3019 7.104 47.9939 7.104H46.0979V3.972ZM55.9709 12.108C56.9429 12.108 57.7229 11.844 58.2989 11.304C58.8749 10.764 59.1629 10.128 59.1629 9.396C59.1629 8.712 58.9349 8.148 58.4909 7.716C58.0469 7.272 57.2429 6.876 56.0789 6.528C54.9269 6.18 54.3389 5.796 54.3389 5.088C54.3389 4.332 54.9989 3.804 55.9109 3.804C56.8109 3.804 57.4469 4.248 57.8069 5.124L59.0309 4.464C58.5869 3.3 57.5309 2.472 55.9469 2.472C55.0709 2.472 54.3389 2.736 53.7269 3.264C53.1269 3.78 52.8269 4.416 52.8269 5.172C52.8269 5.892 53.0669 6.468 53.5469 6.888C54.0029 7.296 54.7349 7.656 55.7549 7.98C57.0989 8.4 57.6389 8.796 57.6389 9.48C57.6389 10.26 56.9549 10.764 55.9949 10.764C54.9749 10.764 54.1589 10.212 53.7629 9.204L52.5149 9.852C53.0429 11.292 54.3269 12.108 55.9709 12.108Z" fill="white"/>
</svg>
