<svg width="57" height="11" viewBox="0 0 57 11" fill="none" xmlns="http://www.w3.org/2000/svg">
<path d="M0.084 2.332L0.768 3.46L2.88 2.188V10H4.356V0.603999H2.952L0.084 2.332ZM6.17897 5.296C6.17897 6.676 6.53897 7.816 7.27097 8.74C8.00297 9.652 8.95097 10.108 10.115 10.108C11.279 10.108 12.239 9.652 12.971 8.728C13.703 7.804 14.075 6.652 14.075 5.272C14.075 3.904 13.715 2.764 12.983 1.852C12.251 0.927999 11.303 0.472 10.139 0.472C8.97497 0.472 8.02697 0.939999 7.28297 1.864C6.55097 2.788 6.17897 3.928 6.17897 5.296ZM12.551 5.296C12.551 6.268 12.335 7.096 11.891 7.756C11.447 8.416 10.871 8.752 10.139 8.752C9.40697 8.752 8.81897 8.416 8.37497 7.744C7.93097 7.072 7.71497 6.244 7.71497 5.272C7.71497 4.3 7.93097 3.484 8.36297 2.824C8.80697 2.164 9.38297 1.828 10.115 1.828C10.847 1.828 11.435 2.164 11.879 2.836C12.323 3.508 12.551 4.324 12.551 5.296ZM15.535 4.552C15.535 5.116 16.015 5.584 16.591 5.584C17.179 5.584 17.635 5.128 17.635 4.552C17.635 3.964 17.179 3.496 16.591 3.496C16.015 3.496 15.535 3.964 15.535 4.552ZM15.535 9.016C15.535 9.58 16.015 10.06 16.591 10.06C17.167 10.06 17.635 9.592 17.635 9.016C17.635 8.428 17.179 7.96 16.591 7.96C16.015 7.96 15.535 8.428 15.535 9.016ZM18.5528 2.332L19.2368 3.46L21.3488 2.188V10H22.8248V0.603999H21.4208L18.5528 2.332ZM24.6477 5.296C24.6477 6.676 25.0077 7.816 25.7397 8.74C26.4717 9.652 27.4197 10.108 28.5837 10.108C29.7477 10.108 30.7077 9.652 31.4397 8.728C32.1717 7.804 32.5437 6.652 32.5437 5.272C32.5437 3.904 32.1837 2.764 31.4517 1.852C30.7197 0.927999 29.7717 0.472 28.6077 0.472C27.4437 0.472 26.4957 0.939999 25.7517 1.864C25.0197 2.788 24.6477 3.928 24.6477 5.296ZM31.0197 5.296C31.0197 6.268 30.8037 7.096 30.3597 7.756C29.9157 8.416 29.3397 8.752 28.6077 8.752C27.8757 8.752 27.2877 8.416 26.8437 7.744C26.3997 7.072 26.1837 6.244 26.1837 5.272C26.1837 4.3 26.3997 3.484 26.8317 2.824C27.2757 2.164 27.8517 1.828 28.5837 1.828C29.3157 1.828 29.9037 2.164 30.3477 2.836C30.7917 3.508 31.0197 4.324 31.0197 5.296ZM36.0117 10H37.5237L38.3877 7.792H42.9957L43.8477 10H45.3837L41.5797 0.603999H39.8397L36.0117 10ZM40.6917 2.02L42.4797 6.484H38.9157L40.6917 2.02ZM55.2862 10H56.7502V0.603999H54.8182L51.6862 7.792H51.6742L48.4942 0.603999H46.6102V10H48.0622V3.184H48.0862L51.1222 10H52.2142L55.2622 3.148H55.2862V10Z" fill="white"/>
</svg>
